<svg width="594" height="152" viewBox="0 0 594 152" fill="none" xmlns="http://www.w3.org/2000/svg">
<path fill-rule="evenodd" clip-rule="evenodd" d="M179.565 119.725V65.2975L213.896 78.3451V119.725H225.34V52.9697H213.896V66.0751L179.636 52.9698L179.565 52.9698H179.481L179.06 52.9697L179.06 52.9698H168.121V119.725H179.565Z" fill="#484848"/>
<path fill-rule="evenodd" clip-rule="evenodd" d="M455.762 53.001H444.318V66.7877H405.222V53.001H393.778V119.756H405.222V78.3029H444.318V119.756H455.762V53.001Z" fill="#484848"/>
<rect x="301.751" y="53.0024" width="11.4437" height="66.7548" fill="#484848"/>
<path fill-rule="evenodd" clip-rule="evenodd" d="M101.333 52.9692V64.4129H101.333V75.8556H101.333V87.2993H101.333V108.242H101.333V119.758H158.909V108.242H112.777V87.2993H158.551V75.8556L112.777 75.8556V64.4129H158.551V52.9692H101.333Z" fill="#484848"/>
<path fill-rule="evenodd" clip-rule="evenodd" d="M464.904 52.9692V64.4129H464.905V108.282H464.904V119.726H464.905V119.756H476.348V119.726H522.123V108.282H476.348V87.5153H521.636V76.0001H476.348V64.4129H522.123V52.9692H464.904Z" fill="#484848"/>
<path fill-rule="evenodd" clip-rule="evenodd" d="M333.778 53.001H322.334V53.0027H322.334V64.4464H322.334V89.7185H322.334V101.162H322.334V119.756H333.778V101.162H359.223C362.391 101.299 365.556 100.809 368.535 99.7193C371.605 98.5966 374.414 96.8607 376.79 94.6174C379.167 92.3742 381.063 89.6705 382.361 86.6711C383.66 83.6717 384.334 80.4394 384.343 77.1711C384.352 73.9027 383.695 70.6668 382.413 67.6603C381.131 64.6539 379.251 61.9399 376.886 59.6837C374.521 57.4275 371.722 55.6763 368.659 54.5368C366.037 53.5616 363.269 53.0519 360.48 53.0268V53.0027H333.778V53.001ZM359.634 64.4464H333.778V89.7185H359.567L359.572 89.6269C361.272 89.7207 362.973 89.4675 364.571 88.8828C366.17 88.298 367.633 87.394 368.871 86.2257C370.109 85.0574 371.096 83.6493 371.772 82.0872C372.448 80.5251 372.799 78.8417 372.804 77.1395C372.809 75.4374 372.467 73.7521 371.799 72.1863C371.131 70.6205 370.152 69.2071 368.921 68.032C367.689 66.857 366.231 65.945 364.636 65.3515C363.04 64.758 361.341 64.4956 359.641 64.5801L359.634 64.4464Z" fill="#484848"/>
<path fill-rule="evenodd" clip-rule="evenodd" d="M531.262 53.001H542.706V53.0027H569.408V53.0268C572.322 53.0527 575.21 53.6076 577.931 54.6669C580.917 55.8295 583.641 57.5765 585.943 59.8054C588.245 62.0342 590.079 64.7002 591.338 67.647C592.596 70.5938 593.254 73.7622 593.273 76.9665C593.291 80.1708 592.67 83.3465 591.445 86.3077C590.221 89.2688 588.417 91.9557 586.141 94.211C584.493 95.844 582.621 97.2269 580.584 98.3202L590.627 119.638H588.481H586.813H583.236H577.076L569.063 101.184C568.986 101.184 568.909 101.183 568.831 101.182L568.831 101.162H542.706V119.756H531.262V101.162H531.262V89.7185H531.262V64.4464H531.262V53.0027H531.262V53.001ZM569.004 89.7185L569.005 89.6445C570.674 89.6697 572.33 89.3615 573.878 88.7381C575.427 88.1147 576.835 87.1886 578.02 86.014C579.206 84.8395 580.145 83.4401 580.783 81.8979C581.42 80.3558 581.744 78.7018 581.734 77.033C581.725 75.3642 581.382 73.7141 580.727 72.1794C580.071 70.6446 579.116 69.2562 577.917 68.0954C576.718 66.9346 575.299 66.0248 573.744 65.4192C572.189 64.8137 570.529 64.5247 568.86 64.569L568.857 64.4464H542.706V89.7185H569.004Z" fill="#484848"/>
<path d="M292.136 109.949C287.649 114.435 281.977 117.549 275.784 118.928C269.592 120.306 263.134 119.89 257.169 117.73C251.203 115.57 245.977 111.754 242.103 106.73C238.229 101.706 235.867 95.6814 235.293 89.3629C234.72 83.0444 235.959 76.6934 238.866 71.0541C241.773 65.4148 246.227 60.7208 251.706 57.5222C257.185 54.3235 263.463 52.7527 269.803 52.9938C276.142 53.235 282.282 55.278 287.503 58.8836L280.489 69.0378C277.199 66.7654 273.329 65.4777 269.334 65.3258C265.338 65.1738 261.382 66.1638 257.928 68.1798C254.475 70.1958 251.668 73.1543 249.836 76.7085C248.004 80.2628 247.222 84.2656 247.584 88.2479C247.945 92.2302 249.434 96.0271 251.876 99.1935C254.317 102.36 257.611 104.765 261.371 106.127C265.131 107.488 269.201 107.75 273.104 106.881C277.007 106.013 280.582 104.05 283.409 101.222L292.136 109.949Z" fill="#484848"/>
<path d="M-0.000404358 41.4546C-0.000404358 36.0107 1.07185 30.6202 3.15514 25.5907C5.23842 20.5612 8.29194 15.9912 12.1414 12.1418C15.9908 8.29243 20.5607 5.23891 25.5902 3.15562C30.6197 1.07234 36.0103 8.36854e-05 41.4541 8.39233e-05C46.898 8.41613e-05 52.2886 1.07234 57.3181 3.15562C62.3476 5.23891 66.9175 8.29243 70.7669 12.1418C74.6163 15.9913 77.6699 20.5612 79.7532 25.5907C81.8364 30.6202 82.9087 36.0107 82.9087 41.4546L73.6689 41.4546C73.6689 37.2241 72.8356 33.0351 71.2167 29.1266C69.5977 25.2181 67.2248 21.6668 64.2334 18.6754C61.242 15.684 57.6907 13.3111 53.7822 11.6921C49.8737 10.0732 45.6846 9.23992 41.4541 9.23992C37.2236 9.23992 33.0346 10.0732 29.1261 11.6921C25.2176 13.3111 21.6663 15.684 18.6749 18.6754C15.6835 21.6668 13.3106 25.2181 11.6916 29.1266C10.0727 33.0351 9.23943 37.2241 9.23943 41.4546H-0.000404358Z" fill="#002F25"/>
<path d="M0 41.4546H9.21212V52.9697H0V41.4546Z" fill="#002F25"/>
<path fill-rule="evenodd" clip-rule="evenodd" d="M0 52.9697H82.9091V119.758H42.3294L14.9697 152V119.758H0V52.9697ZM52.9695 82.9091C52.9695 86.5245 51.3033 89.7507 48.697 91.8618L52.9692 111.697H29.9388L34.2111 91.8614C31.6051 89.7503 29.9391 86.5242 29.9391 82.9091C29.9391 76.5494 35.0947 71.3939 41.4543 71.3939C47.8139 71.3939 52.9695 76.5494 52.9695 82.9091Z" fill="#002F25"/>
</svg>
